<svg width="335" height="133" viewBox="0 0 335 133" fill="none" xmlns="http://www.w3.org/2000/svg">
<path d="M252.391 107.938L254.805 122.879L262.422 107.938H264.203L261.238 125H259.902L261.191 117.57L262.562 110.363L255.004 125H253.984L251.5 110.27L250.34 117.594L249.051 125H247.715L250.68 107.938H252.391ZM271.609 125C271.578 124.703 271.578 124.41 271.609 124.121L271.715 123.242C270.676 124.609 269.461 125.277 268.07 125.246C267.07 125.23 266.312 124.902 265.797 124.262C265.281 123.613 265.062 122.781 265.141 121.766C265.227 120.484 265.758 119.473 266.734 118.73C267.711 117.98 268.941 117.605 270.426 117.605L272.582 117.617L272.84 115.836C272.926 115.055 272.797 114.441 272.453 113.996C272.117 113.543 271.543 113.309 270.73 113.293C269.965 113.277 269.305 113.5 268.75 113.961C268.203 114.422 267.848 115.039 267.684 115.812L266.406 115.801C266.562 114.707 267.055 113.809 267.883 113.105C268.719 112.402 269.711 112.059 270.859 112.074C271.984 112.09 272.836 112.434 273.414 113.105C273.992 113.777 274.227 114.699 274.117 115.871L273.051 122.34C272.98 122.777 272.945 123.199 272.945 123.605L272.969 124.859L272.945 125H271.609ZM268.305 124.004C269.031 124.02 269.703 123.832 270.32 123.441C270.945 123.043 271.461 122.496 271.867 121.801L272.395 118.707L270.59 118.695C269.41 118.695 268.453 118.961 267.719 119.492C266.984 120.016 266.57 120.738 266.477 121.66C266.406 122.387 266.527 122.957 266.84 123.371C267.16 123.777 267.648 123.988 268.305 124.004ZM280.645 125.234C279.996 125.219 279.41 125.066 278.887 124.777C278.363 124.488 277.953 124.051 277.656 123.465L276.508 129.875H275.219L278.266 112.32L279.461 112.309L279.121 114.043C280.059 112.707 281.207 112.055 282.566 112.086C284.551 112.117 285.609 113.406 285.742 115.953L285.754 116.762C285.715 117.551 285.617 118.457 285.461 119.48C285.164 121.434 284.609 122.891 283.797 123.852C282.984 124.812 281.934 125.273 280.645 125.234ZM284.371 118.051C284.457 117.191 284.484 116.512 284.453 116.012C284.336 114.238 283.578 113.34 282.18 113.316C281.523 113.301 280.922 113.48 280.375 113.855C279.836 114.223 279.375 114.746 278.992 115.426L277.867 122.129C278.289 123.355 279.133 123.992 280.398 124.039C282.414 124.109 283.668 122.656 284.16 119.68L284.371 118.051ZM291.109 112.32L289.105 123.793H293.512L295.504 112.32H296.805L294.801 123.793H299.184L301.176 112.32H302.477L300.273 125H287.594L289.797 112.32H291.109ZM308.23 125.234C307.582 125.219 306.996 125.066 306.473 124.777C305.949 124.488 305.539 124.051 305.242 123.465L304.094 129.875H302.805L305.852 112.32L307.047 112.309L306.707 114.043C307.645 112.707 308.793 112.055 310.152 112.086C312.137 112.117 313.195 113.406 313.328 115.953L313.34 116.762C313.301 117.551 313.203 118.457 313.047 119.48C312.75 121.434 312.195 122.891 311.383 123.852C310.57 124.812 309.52 125.273 308.23 125.234ZM311.957 118.051C312.043 117.191 312.07 116.512 312.039 116.012C311.922 114.238 311.164 113.34 309.766 113.316C309.109 113.301 308.508 113.48 307.961 113.855C307.422 114.223 306.961 114.746 306.578 115.426L305.453 122.129C305.875 123.355 306.719 123.992 307.984 124.039C310 124.109 311.254 122.656 311.746 119.68L311.957 118.051ZM318.59 122.797L323.336 112.32H324.766L317.91 127.039C317.434 128.164 316.918 128.965 316.363 129.441C315.816 129.926 315.203 130.164 314.523 130.156C314.289 130.156 313.953 130.094 313.516 129.969L313.656 128.785L314.242 128.879C315.242 128.926 316.055 128.324 316.68 127.074L317.688 124.824L316 112.32H317.371L318.59 122.797ZM334.305 113.539H330.602L328.609 125H327.309L329.301 113.539H325.727L325.949 112.32H334.516L334.305 113.539Z" fill="black"/>
<path d="M57.032 23.312C57.352 23.76 57.576 24.24 57.704 24.752C57.832 25.2 57.96 25.68 58.088 26.192C58.216 26.704 58.312 27.216 58.376 27.728C58.504 28.24 58.568 28.752 58.568 29.264C58.568 29.84 58.504 30.416 58.376 30.992C58.248 31.568 58.088 32.144 57.896 32.72C57.768 33.296 57.64 33.904 57.512 34.544C57.448 35.12 57.256 35.696 56.936 36.272C56.68 36.784 56.36 37.296 55.976 37.808C55.656 38.256 55.304 38.736 54.92 39.248C54.6 39.76 54.248 40.24 53.864 40.688C53.544 41.136 53.16 41.584 52.712 42.032C53.032 42.544 53.288 43.088 53.48 43.664C53.736 44.176 53.992 44.72 54.248 45.296C54.568 45.808 54.824 46.352 55.016 46.928C55.208 47.44 55.4 48.016 55.592 48.656C55.784 49.168 55.976 49.712 56.168 50.288C56.36 50.864 56.52 51.472 56.648 52.112C56.776 52.688 56.904 53.264 57.032 53.84C57.16 54.416 57.288 55.024 57.416 55.664C57.544 56.24 57.576 56.848 57.512 57.488C57.512 58.064 57.544 58.672 57.608 59.312C57.608 59.888 57.64 60.496 57.704 61.136C57.768 61.712 57.8 62.288 57.8 62.864C57.8 63.44 57.768 64.016 57.704 64.592C57.704 65.168 57.704 65.776 57.704 66.416L57.416 69.872C57.352 70.448 57.288 71.024 57.224 71.6C57.224 72.176 57.16 72.752 57.032 73.328C56.904 73.904 56.776 74.48 56.648 75.056C56.52 75.632 56.392 76.208 56.264 76.784L55.4 80.144C55.208 80.72 55.016 81.296 54.824 81.872C54.696 82.448 54.536 82.992 54.344 83.504C54.088 84.08 53.8 84.624 53.48 85.136C53.224 85.584 52.968 86.064 52.712 86.576C52.392 87.088 52.104 87.632 51.848 88.208C51.656 88.72 51.4 89.232 51.08 89.744C50.76 90.256 50.408 90.736 50.024 91.184C49.704 91.632 49.352 92.08 48.968 92.528C48.584 93.04 48.136 93.52 47.624 93.968C47.176 94.352 46.728 94.736 46.28 95.12C45.256 96.08 44.264 96.848 43.304 97.424C42.792 97.744 42.248 98.096 41.672 98.48C41.16 98.864 40.616 99.152 40.04 99.344C38.952 99.792 37.768 100.176 36.488 100.496C35.848 100.624 35.208 100.656 34.568 100.592C33.928 100.592 33.288 100.592 32.648 100.592V100.784H32.264C31.112 100.784 30.024 100.688 29 100.496C28.488 100.368 27.976 100.208 27.464 100.016C26.952 99.824 26.44 99.632 25.928 99.44C25.416 99.248 24.904 99.056 24.392 98.864C23.944 98.736 23.464 98.544 22.952 98.288C22.44 97.968 21.96 97.648 21.512 97.328C21.128 97.008 20.712 96.688 20.264 96.368C19.816 96.048 19.4 95.728 19.016 95.408C18.632 95.024 18.248 94.64 17.864 94.256C17.032 93.424 16.328 92.592 15.752 91.76C15.112 90.992 14.408 90.032 13.64 88.88C13.32 88.368 13.064 87.824 12.872 87.248C12.68 86.672 12.456 86.128 12.2 85.616C11.944 85.104 11.72 84.56 11.528 83.984C11.336 83.408 11.144 82.832 10.952 82.256L9.992 78.8C9.864 78.224 9.768 77.648 9.704 77.072C9.64 76.496 9.544 75.888 9.416 75.248C9.288 74.672 9.16 74.096 9.032 73.52C8.968 72.944 8.936 72.336 8.936 71.696C8.872 71.12 8.84 70.544 8.84 69.968C8.904 69.392 8.936 68.784 8.936 68.144C8.936 67.568 8.872 66.992 8.744 66.416C8.68 65.776 8.68 65.168 8.744 64.592L9.032 60.944L9.704 57.488L10.28 53.936L11.048 50.384V50.48L11.24 50.288C10.664 50.096 10.088 49.936 9.512 49.808C8.936 49.616 8.392 49.36 7.88 49.04C7.368 48.72 6.888 48.336 6.44 47.888C6.056 47.44 5.64 47.024 5.192 46.64C4.744 46.192 4.328 45.776 3.944 45.392C3.496 44.944 3.112 44.464 2.792 43.952C2.152 43.056 1.672 41.968 1.352 40.688C1.096 39.664 0.968 38.448 0.968 37.04C0.968 36.016 1.128 34.928 1.448 33.776C1.64 32.688 1.928 31.6 2.312 30.512C2.504 30 2.728 29.488 2.984 28.976C3.24 28.464 3.528 27.952 3.848 27.44C4.168 26.928 4.456 26.448 4.712 26C4.904 25.488 5.16 25.008 5.48 24.56C5.864 24.048 6.248 23.632 6.632 23.312C7.08 22.992 7.496 22.64 7.88 22.256C8.456 22.256 8.744 22.48 8.744 22.928C8.36 23.312 8.008 23.728 7.688 24.176C7.368 24.56 7.048 24.976 6.728 25.424C6.024 26.32 5.448 27.184 5 28.016C4.68 28.528 4.392 29.008 4.136 29.456C3.816 29.84 3.56 30.288 3.368 30.8C2.984 31.824 2.696 32.848 2.504 33.872C2.376 34.384 2.312 34.928 2.312 35.504C2.312 36.016 2.312 36.528 2.312 37.04C2.312 37.616 2.312 38.192 2.312 38.768C2.248 39.344 2.28 39.888 2.408 40.4C2.536 40.912 2.76 41.392 3.08 41.84C3.336 42.288 3.624 42.768 3.944 43.28C4.584 44.24 5.256 45.072 5.96 45.776C6.344 46.16 6.76 46.512 7.208 46.832C7.656 47.088 8.136 47.376 8.648 47.696C9.096 48.016 9.544 48.304 9.992 48.56C10.504 48.816 11.016 49.04 11.528 49.232C11.656 48.72 11.816 48.208 12.008 47.696C12.2 47.184 12.392 46.672 12.584 46.16L13.736 43.088C13.992 42.576 14.216 42.064 14.408 41.552C14.6 41.04 14.824 40.528 15.08 40.016C15.336 39.504 15.56 39.024 15.752 38.576C16.008 38.064 16.296 37.552 16.616 37.04C16.872 36.528 17.16 36.08 17.48 35.696C17.8 35.248 18.12 34.768 18.44 34.256L20.264 31.568C20.584 31.12 20.904 30.704 21.224 30.32C21.608 29.872 21.992 29.424 22.376 28.976C22.76 28.528 23.112 28.112 23.432 27.728C23.816 27.344 24.232 26.96 24.68 26.576C25.512 25.616 26.472 24.752 27.56 23.984C28.072 23.536 28.584 23.152 29.096 22.832C29.672 22.512 30.248 22.16 30.824 21.776C31.336 21.456 31.848 21.136 32.36 20.816C32.936 20.432 33.512 20.08 34.088 19.76C34.664 19.504 35.208 19.28 35.72 19.088C36.296 18.832 36.872 18.608 37.448 18.416C38.024 18.288 38.6 18.16 39.176 18.032C39.816 17.904 40.424 17.776 41 17.648C42.216 17.456 43.432 17.36 44.648 17.36C45.736 17.36 46.984 17.52 48.392 17.84C49.8 18.032 51.016 18.352 52.04 18.8C52.616 19.056 53.128 19.376 53.576 19.76C54.088 20.144 54.568 20.56 55.016 21.008C55.4 21.328 55.752 21.68 56.072 22.064C56.456 22.448 56.776 22.864 57.032 23.312ZM53.288 45.968C53.032 45.456 52.776 44.944 52.52 44.432C52.328 43.856 52.072 43.312 51.752 42.8C51.368 43.184 50.984 43.568 50.6 43.952C50.216 44.336 49.8 44.688 49.352 45.008C48.904 45.328 48.488 45.648 48.104 45.968C47.72 46.288 47.272 46.608 46.76 46.928C45.8 47.568 44.872 48.112 43.976 48.56C43.464 48.816 42.952 49.008 42.44 49.136C41.928 49.264 41.416 49.424 40.904 49.616C40.392 49.808 39.912 50.064 39.464 50.384C39.016 50.64 38.536 50.832 38.024 50.96C37.512 51.088 37 51.184 36.488 51.248C35.976 51.248 35.464 51.312 34.952 51.44C34.44 51.568 33.928 51.728 33.416 51.92C32.904 52.048 32.392 52.176 31.88 52.304C31.368 52.432 30.824 52.528 30.248 52.592C29.736 52.592 29.224 52.624 28.712 52.688C28.2 52.752 27.656 52.784 27.08 52.784C26.568 52.72 26.056 52.688 25.544 52.688C25.032 52.688 24.488 52.688 23.912 52.688C23.4 52.624 22.888 52.56 22.376 52.496L19.112 52.304L15.848 51.728C15.72 52.24 15.656 52.784 15.656 53.36C15.656 53.936 15.592 54.512 15.464 55.088C15.336 55.6 15.208 56.144 15.08 56.72C14.952 57.232 14.856 57.744 14.792 58.256C14.664 58.832 14.6 59.408 14.6 59.984C14.664 60.496 14.664 61.04 14.6 61.616C14.536 62.128 14.504 62.672 14.504 63.248C14.568 63.76 14.568 64.304 14.504 64.88V68.144C14.504 68.72 14.472 69.296 14.408 69.872C14.344 70.448 14.312 70.992 14.312 71.504L14.6 74.864C14.664 75.504 14.728 76.112 14.792 76.688C14.92 77.2 15.016 77.712 15.08 78.224C15.208 78.8 15.24 79.376 15.176 79.952C15.176 80.528 15.24 81.104 15.368 81.68C15.496 82.256 15.656 82.8 15.848 83.312C16.104 83.824 16.328 84.336 16.52 84.848C16.648 85.424 16.776 86 16.904 86.576C17.096 87.088 17.32 87.6 17.576 88.112C17.768 88.624 17.992 89.136 18.248 89.648C18.504 90.096 18.76 90.576 19.016 91.088C19.336 91.6 19.624 92.112 19.88 92.624C20.2 93.072 20.52 93.52 20.84 93.968C21.224 94.416 21.576 94.864 21.896 95.312C22.28 95.696 22.696 96.048 23.144 96.368C23.976 97.072 24.936 97.68 26.024 98.192C26.536 98.384 27.048 98.544 27.56 98.672C28.136 98.864 28.712 99.024 29.288 99.152C30.312 99.344 31.432 99.44 32.648 99.44V99.536C33.864 99.536 35.048 99.44 36.2 99.248C36.776 99.12 37.352 98.96 37.928 98.768C38.504 98.64 39.08 98.448 39.656 98.192C40.168 97.936 40.68 97.68 41.192 97.424C41.768 97.168 42.312 96.88 42.824 96.56C43.784 95.856 44.712 95.12 45.608 94.352C46.056 93.968 46.472 93.584 46.856 93.2C47.304 92.816 47.752 92.368 48.2 91.856C48.52 91.408 48.808 90.96 49.064 90.512C49.384 90 49.704 89.488 50.024 88.976C50.344 88.464 50.632 87.984 50.888 87.536C51.144 87.024 51.4 86.512 51.656 86C52.232 85.104 52.712 84.08 53.096 82.928C53.288 82.416 53.48 81.904 53.672 81.392C53.864 80.816 54.024 80.272 54.152 79.76C54.6 78.544 54.952 77.456 55.208 76.496C55.336 75.92 55.4 75.344 55.4 74.768C55.464 74.192 55.56 73.648 55.688 73.136C55.816 72.56 55.944 72.016 56.072 71.504C56.2 70.928 56.296 70.352 56.36 69.776L56.648 66.32V62.864C56.648 62.288 56.648 61.712 56.648 61.136C56.648 60.56 56.616 59.984 56.552 59.408C56.552 58.832 56.488 58.256 56.36 57.68C56.296 57.104 56.232 56.528 56.168 55.952C56.04 55.376 55.944 54.8 55.88 54.224C55.816 53.648 55.72 53.072 55.592 52.496C55.464 51.92 55.272 51.376 55.016 50.864C54.824 50.288 54.664 49.744 54.536 49.232C54.344 48.656 54.152 48.112 53.96 47.6C53.768 47.024 53.544 46.48 53.288 45.968ZM56.744 32.432C56.872 31.92 57.032 31.408 57.224 30.896C57.416 30.32 57.512 29.776 57.512 29.264C57.512 28.624 57.416 28.016 57.224 27.44C57.032 26.8 56.84 26.192 56.648 25.616C56.264 24.528 55.624 23.472 54.728 22.448C54.344 22 53.928 21.584 53.48 21.2C53.032 20.816 52.488 20.464 51.848 20.144C51.336 19.888 50.792 19.664 50.216 19.472C49.704 19.216 49.096 19.024 48.392 18.896C47.816 18.768 47.208 18.704 46.568 18.704C45.992 18.64 45.352 18.608 44.648 18.608V18.512C44.584 18.512 44.552 18.544 44.552 18.608V18.512C43.976 18.512 43.4 18.544 42.824 18.608C42.248 18.672 41.704 18.768 41.192 18.896C40.616 19.024 40.04 19.184 39.464 19.376C38.952 19.504 38.408 19.664 37.832 19.856C36.68 20.24 35.656 20.72 34.76 21.296C34.248 21.616 33.736 21.904 33.224 22.16C32.712 22.352 32.2 22.608 31.688 22.928C31.176 23.248 30.696 23.6 30.248 23.984C29.864 24.368 29.448 24.752 29 25.136C28.616 25.52 28.232 25.936 27.848 26.384C27.528 26.832 27.176 27.28 26.792 27.728C26.344 28.24 25.896 28.72 25.448 29.168C25.064 29.552 24.68 30 24.296 30.512C23.976 31.024 23.688 31.568 23.432 32.144C23.176 32.656 22.888 33.168 22.568 33.68L20.84 36.848C20.584 37.424 20.328 38 20.072 38.576C19.88 39.088 19.688 39.632 19.496 40.208C19.24 40.784 18.984 41.36 18.728 41.936C18.472 42.448 18.248 42.992 18.056 43.568C17.864 44.144 17.672 44.72 17.48 45.296C17.288 45.872 17.128 46.48 17 47.12C16.808 47.696 16.648 48.272 16.52 48.848C16.392 49.424 16.264 50.032 16.136 50.672C16.648 50.8 17.16 50.896 17.672 50.96C18.184 50.96 18.728 50.992 19.304 51.056C19.816 51.184 20.328 51.248 20.84 51.248C21.352 51.248 21.896 51.28 22.472 51.344C22.984 51.408 23.496 51.472 24.008 51.536C24.52 51.536 25.032 51.536 25.544 51.536C26.184 51.536 26.792 51.536 27.368 51.536C27.944 51.472 28.52 51.408 29.096 51.344C29.672 51.28 30.248 51.216 30.824 51.152C31.4 51.088 31.976 50.992 32.552 50.864C33.128 50.736 33.704 50.64 34.28 50.576C34.856 50.448 35.4 50.32 35.912 50.192C36.488 50 37.064 49.84 37.64 49.712C38.216 49.52 38.76 49.328 39.272 49.136C39.784 48.88 40.328 48.688 40.904 48.56C41.48 48.368 42.024 48.144 42.536 47.888C43.048 47.632 43.528 47.344 43.976 47.024C44.488 46.704 45 46.384 45.512 46.064C46.024 45.744 46.504 45.424 46.952 45.104C47.464 44.784 47.944 44.432 48.392 44.048C48.904 43.728 49.352 43.408 49.736 43.088C50.184 42.704 50.6 42.288 50.984 41.84C50.6 41.328 50.216 40.848 49.832 40.4C49.448 39.888 49 39.408 48.488 38.96C47.976 38.512 47.496 38.064 47.048 37.616C46.6 37.168 46.088 36.784 45.512 36.464C45 36.144 44.424 35.888 43.784 35.696C43.144 35.44 42.504 35.216 41.864 35.024C41.672 34.576 41.832 34.192 42.344 33.872C42.856 34 43.336 34.128 43.784 34.256C44.232 34.384 44.712 34.576 45.224 34.832C45.672 35.088 46.088 35.376 46.472 35.696C46.856 36.016 47.272 36.336 47.72 36.656C48.488 37.232 49.256 37.904 50.024 38.672C50.344 38.992 50.664 39.344 50.984 39.728C51.304 40.048 51.624 40.432 51.944 40.88C52.328 40.432 52.68 40.016 53 39.632C53.32 39.248 53.64 38.832 53.96 38.384C54.28 37.872 54.6 37.424 54.92 37.04C55.304 36.656 55.624 36.208 55.88 35.696C56.136 35.184 56.296 34.64 56.36 34.064C56.488 33.488 56.616 32.944 56.744 32.432ZM94.7893 96.848C95.4933 96.848 96.1333 96.656 96.7093 96.272C97.0293 96.144 97.3173 96.016 97.5733 95.888C97.8293 95.76 98.1173 95.536 98.4373 95.216C98.6933 95.024 98.9173 94.8 99.1093 94.544C99.3013 94.288 99.4933 94 99.6853 93.68L100.837 92.048C100.965 91.728 101.093 91.44 101.221 91.184C101.413 90.928 101.605 90.64 101.797 90.32C101.925 90 102.053 89.712 102.181 89.456C102.373 89.136 102.533 88.816 102.661 88.496L103.429 86.672C103.557 86.352 103.685 86.032 103.813 85.712C103.941 85.392 104.069 85.072 104.197 84.752L104.773 82.832C104.901 82.512 104.997 82.224 105.061 81.968C105.189 81.648 105.285 81.328 105.349 81.008C105.669 80.88 105.893 80.848 106.021 80.912C106.149 80.976 106.309 81.104 106.501 81.296C106.437 81.552 106.373 81.84 106.309 82.16C106.245 82.48 106.149 82.8 106.021 83.12C105.893 83.76 105.701 84.4 105.445 85.04L104.773 86.768C104.645 87.088 104.517 87.408 104.389 87.728C104.261 87.984 104.133 88.272 104.005 88.592L103.237 90.32C103.109 90.64 102.949 90.928 102.757 91.184C102.565 91.44 102.373 91.728 102.181 92.048C101.925 92.624 101.573 93.168 101.125 93.68C100.933 94 100.741 94.32 100.549 94.64C100.421 94.896 100.229 95.152 99.9733 95.408C99.7173 95.664 99.4613 95.92 99.2053 96.176C99.0133 96.368 98.7893 96.528 98.5333 96.656C98.0213 97.104 97.4453 97.424 96.8053 97.616C96.0373 97.936 95.3653 98.096 94.7893 98.096C94.4693 98.096 94.1493 98.064 93.8293 98C93.5733 97.936 93.2853 97.84 92.9653 97.712C92.6453 97.648 92.3573 97.552 92.1013 97.424C91.8453 97.296 91.5573 97.168 91.2373 97.04C90.6613 96.72 90.2133 96.304 89.8933 95.792C89.3173 95.216 88.9013 94.64 88.6453 94.064C88.5173 93.744 88.3893 93.424 88.2613 93.104C88.1973 92.784 88.1013 92.464 87.9733 92.144C87.8453 91.632 87.7173 90.928 87.5893 90.032C87.4613 89.712 87.3653 89.392 87.3013 89.072C87.3013 88.688 87.2693 88.336 87.2053 88.016V85.904C87.2053 85.584 87.1733 85.232 87.1093 84.848C87.1093 84.464 87.1093 84.112 87.1093 83.792C87.1093 83.472 87.1093 83.12 87.1093 82.736C87.1733 82.352 87.2053 82 87.2053 81.68C87.2693 81.36 87.3013 81.008 87.3013 80.624C87.3013 80.24 87.3013 79.888 87.3013 79.568L87.4933 77.456L87.8773 75.344C87.7493 75.664 87.6213 76.016 87.4933 76.4C87.4293 76.72 87.3333 77.04 87.2053 77.36C87.0773 77.68 86.9493 78 86.8213 78.32C86.7573 78.576 86.6613 78.864 86.5333 79.184C86.4053 79.504 86.3093 79.824 86.2453 80.144C86.1813 80.464 86.0853 80.784 85.9573 81.104L85.1893 82.928C85.0613 83.248 84.9333 83.568 84.8053 83.888C84.7413 84.208 84.6453 84.528 84.5173 84.848L83.5573 86.768C83.4293 87.088 83.3013 87.408 83.1733 87.728C83.0453 88.048 82.9173 88.368 82.7893 88.688L81.6373 90.416C81.5093 90.736 81.3493 91.056 81.1573 91.376C81.0293 91.696 80.8693 92.016 80.6773 92.336L79.5253 94.064L78.2773 95.504C78.0213 95.76 77.7653 95.984 77.5093 96.176C77.2533 96.368 76.9973 96.56 76.7413 96.752C76.2933 97.136 75.7493 97.424 75.1093 97.616C74.5333 97.872 73.8933 98 73.1893 98C72.4213 98 71.6533 97.904 70.8853 97.712C70.1813 97.52 69.4773 97.232 68.7733 96.848C68.4533 96.592 68.1333 96.368 67.8133 96.176C67.4933 95.984 67.2053 95.728 66.9492 95.408C66.4373 94.768 66.0533 94.16 65.7973 93.584C65.6053 93.264 65.4453 92.944 65.3173 92.624C65.1893 92.304 65.0613 91.984 64.9333 91.664L64.4533 89.552L64.0693 87.536L63.8773 85.424C63.8773 85.104 63.8453 84.752 63.7812 84.368C63.7812 83.984 63.7812 83.632 63.7812 83.312V81.2C63.7812 80.88 63.7812 80.528 63.7812 80.144C63.8453 79.76 63.8773 79.408 63.8773 79.088C63.9413 78.768 63.9733 78.448 63.9733 78.128C64.0373 77.744 64.0693 77.36 64.0693 76.976L64.3573 74.864C64.3573 74.544 64.3573 74.224 64.3573 73.904C64.3573 73.52 64.3893 73.136 64.4533 72.752L64.8373 70.736L65.1253 68.624L65.3173 66.512L65.7013 64.4L66.0853 62.384L66.4693 60.272L66.9492 57.488C66.9492 57.36 66.9173 57.264 66.8533 57.2C66.7893 57.072 66.8213 56.976 66.9492 56.912C67.4613 56.848 67.7813 56.848 67.9093 56.912C68.0373 56.976 68.3573 57.04 68.8693 57.104L70.5973 57.392C71.1093 57.456 71.4293 57.456 71.5573 57.392C71.7493 57.328 72.0373 57.392 72.4213 57.584C72.5493 57.648 72.5493 57.744 72.4213 57.872C72.3573 57.936 72.3253 58.032 72.3253 58.16C72.1973 58.48 72.1013 58.8 72.0373 59.12C72.0373 59.44 71.9733 59.824 71.8453 60.272L71.4613 62.288C71.3973 62.608 71.3013 62.96 71.1733 63.344C71.1093 63.664 71.0133 63.984 70.8853 64.304L70.5013 66.32L70.2133 68.432C70.0853 68.752 69.9893 69.104 69.9253 69.488C69.9253 69.808 69.8933 70.128 69.8293 70.448C69.7013 70.768 69.6053 71.12 69.5413 71.504C69.5413 71.824 69.5093 72.144 69.4453 72.464L69.1573 74.576L68.7733 76.592L68.5813 78.704C68.5813 79.024 68.5493 79.376 68.4853 79.76C68.4213 80.144 68.3893 80.496 68.3893 80.816C68.3253 81.2 68.2933 81.584 68.2933 81.968C68.2933 82.288 68.2933 82.608 68.2933 82.928C68.2293 83.312 68.1653 83.696 68.1013 84.08C68.1013 84.4 68.1013 84.72 68.1013 85.04C68.1013 85.424 68.0693 85.808 68.0053 86.192C68.0053 86.576 68.0053 86.928 68.0053 87.248L68.1973 89.36C68.2613 89.744 68.2933 90.128 68.2933 90.512C68.2933 90.832 68.3573 91.152 68.4853 91.472C68.5493 91.856 68.6453 92.208 68.7733 92.528C68.9013 92.848 69.0293 93.168 69.1573 93.488C69.4773 94.384 69.7973 95.024 70.1172 95.408C70.5013 95.856 70.9493 96.24 71.4613 96.56C71.7813 96.688 72.0693 96.784 72.3253 96.848C72.5813 96.912 72.8693 96.944 73.1893 96.944C73.8293 96.944 74.5013 96.752 75.2053 96.368C75.5253 96.24 75.8133 96.08 76.0693 95.888C76.3253 95.632 76.6133 95.376 76.9333 95.12C77.1893 94.864 77.4133 94.608 77.6053 94.352C77.8613 94.096 78.0853 93.808 78.2773 93.488C78.5333 93.232 78.7253 92.976 78.8533 92.72C79.0453 92.464 79.2693 92.176 79.5253 91.856L80.5813 90.032C80.7093 89.712 80.8693 89.424 81.0613 89.168C81.3173 88.848 81.5093 88.528 81.6373 88.208L83.3653 84.368L84.0373 82.448C84.1653 82.128 84.2933 81.808 84.4213 81.488C84.6133 81.104 84.7733 80.752 84.9013 80.432C85.0293 80.112 85.1253 79.792 85.1893 79.472C85.2533 79.088 85.3493 78.736 85.4773 78.416C85.6053 78.096 85.7333 77.776 85.8613 77.456C85.9893 77.136 86.1173 76.816 86.2453 76.496C86.3733 76.176 86.4373 75.856 86.4373 75.536C86.5013 75.152 86.5973 74.8 86.7253 74.48L87.4933 72.464L87.9733 70.352L88.5493 68.336L89.2213 66.416C89.2853 65.968 89.3173 65.552 89.3173 65.168C89.3813 64.784 89.4773 64.4 89.6053 64.016C89.6693 63.568 89.7013 63.152 89.7013 62.768C89.7653 62.384 89.8613 62 89.9893 61.616C90.1173 60.72 90.2453 60.016 90.3733 59.504L90.5653 57.488C90.6293 57.36 90.6293 57.264 90.5653 57.2C90.5653 57.072 90.6293 56.976 90.7573 56.912C91.3973 56.848 91.8133 56.848 92.0052 56.912C92.1973 56.976 92.6133 57.072 93.2533 57.2C93.8933 57.264 94.3093 57.296 94.5013 57.296C94.7573 57.232 95.1733 57.296 95.7493 57.488C95.9413 57.616 95.9733 57.744 95.8453 57.872C95.7813 57.936 95.7493 58.032 95.7493 58.16C95.6853 58.352 95.6213 58.544 95.5573 58.736C95.4933 58.864 95.4293 59.056 95.3653 59.312C95.3013 59.632 95.2373 59.984 95.1733 60.368C95.1733 60.688 95.1093 61.04 94.9813 61.424C94.9173 61.744 94.8533 62.096 94.7893 62.48C94.7893 62.8 94.7253 63.152 94.5973 63.536C94.5333 63.856 94.4693 64.208 94.4053 64.592C94.3413 64.912 94.2453 65.264 94.1173 65.648C94.0533 65.968 93.9573 66.32 93.8293 66.704C93.7653 67.024 93.7013 67.376 93.6373 67.76L93.2533 69.872L92.9653 72.08L92.6773 74.192L92.2933 76.304L92.1013 78.512L91.8133 80.432C91.8133 80.752 91.8133 81.104 91.8133 81.488C91.8133 81.808 91.7813 82.128 91.7173 82.448C91.7173 82.768 91.6853 83.088 91.6213 83.408C91.5573 83.728 91.4933 84.048 91.4293 84.368V86.384C91.4293 86.704 91.3973 87.024 91.3333 87.344C91.3333 87.664 91.3333 87.984 91.3333 88.304C91.3973 88.688 91.4293 89.04 91.4293 89.36C91.4293 89.68 91.4293 90 91.4293 90.32L91.6213 92.336C91.8133 93.04 92.0053 93.648 92.1973 94.16C92.3253 94.608 92.4533 94.992 92.5813 95.312C92.7733 95.568 92.9333 95.792 93.0613 95.984C93.5093 96.56 94.0853 96.848 94.7893 96.848ZM133.066 91.472C133.258 91.152 133.418 90.832 133.546 90.512C133.738 90.128 133.898 89.776 134.026 89.456L134.89 87.344C135.018 87.024 135.146 86.704 135.274 86.384C135.402 86 135.53 85.616 135.658 85.232L136.138 83.12C136.266 82.736 136.394 82.384 136.522 82.064C136.65 81.68 136.778 81.328 136.906 81.008C137.226 80.944 137.45 80.912 137.578 80.912C137.706 80.912 137.866 81.008 138.058 81.2L137.578 83.12L137.098 84.944L136.426 86.768C136.298 87.088 136.17 87.408 136.042 87.728C135.978 87.984 135.882 88.272 135.754 88.592L135.082 90.32L134.218 92.048C134.026 92.368 133.866 92.656 133.738 92.912C133.61 93.168 133.45 93.456 133.258 93.776L132.106 95.312C131.914 95.632 131.69 95.888 131.434 96.08C131.178 96.272 130.954 96.464 130.762 96.656C130.442 96.912 130.154 97.136 129.898 97.328C129.642 97.456 129.354 97.584 129.034 97.712C128.714 97.84 128.394 97.936 128.074 98C127.754 98.064 127.434 98.096 127.114 98.096C126.794 98.096 126.474 98.064 126.154 98C125.898 97.936 125.61 97.872 125.29 97.808C124.522 97.616 123.914 97.36 123.466 97.04C123.21 96.848 122.986 96.656 122.794 96.464C122.602 96.208 122.378 95.952 122.122 95.696C121.674 95.12 121.322 94.544 121.066 93.968C120.874 93.648 120.682 93.36 120.49 93.104C120.362 92.784 120.234 92.464 120.106 92.144C119.85 91.44 119.69 90.768 119.626 90.128L119.338 88.112C119.338 87.792 119.306 87.472 119.242 87.152C119.242 86.768 119.242 86.416 119.242 86.096C119.178 85.776 119.114 85.456 119.049 85.136C119.049 84.752 119.049 84.368 119.049 83.984V81.968C119.049 81.648 119.049 81.328 119.049 81.008C119.114 80.624 119.178 80.272 119.242 79.952C119.242 79.568 119.21 79.216 119.146 78.896C119.146 78.512 119.178 78.16 119.242 77.84C119.242 77.52 119.274 77.2 119.338 76.88C119.402 76.496 119.434 76.144 119.434 75.824L119.818 73.808C119.818 73.488 119.786 73.136 119.722 72.752C119.722 72.368 119.754 72.016 119.818 71.696L120.106 69.68L120.49 67.664L120.778 65.648L121.066 63.536L121.45 61.616C121.258 61.872 121.034 62.096 120.778 62.288C120.586 62.48 120.33 62.704 120.01 62.96C119.626 63.28 119.05 63.6 118.282 63.92C118.026 64.048 117.738 64.144 117.418 64.208C117.098 64.272 116.778 64.368 116.458 64.496C116.138 64.56 115.818 64.624 115.498 64.688C115.178 64.752 114.826 64.784 114.442 64.784C113.994 64.784 113.45 64.72 112.81 64.592L111.178 64.304L111.082 64.4H111.178C111.114 64.72 111.018 65.04 110.89 65.36C110.826 65.68 110.762 66 110.698 66.32L110.218 68.144L109.738 70.064C109.674 70.384 109.578 70.704 109.45 71.024C109.322 71.28 109.194 71.568 109.066 71.888C109.002 72.208 108.97 72.528 108.97 72.848C108.97 73.168 108.906 73.488 108.778 73.808L108.202 75.632C108.074 75.952 107.946 76.272 107.818 76.592C107.754 76.848 107.658 77.136 107.53 77.456C107.402 77.84 107.306 78.224 107.242 78.608C107.242 78.992 107.178 79.376 107.05 79.76C106.922 80.144 106.794 80.528 106.666 80.912C106.538 81.232 106.41 81.552 106.282 81.872C105.962 82 105.738 82.064 105.61 82.064C105.546 82 105.418 81.84 105.226 81.584L105.802 79.376C105.93 79.056 106.026 78.704 106.09 78.32C106.218 77.936 106.346 77.552 106.474 77.168L106.954 75.248C107.082 74.928 107.178 74.64 107.242 74.384C107.37 74.064 107.498 73.744 107.626 73.424L108.01 71.6C108.138 71.28 108.234 70.96 108.298 70.64C108.426 70.32 108.522 70 108.586 69.68L109.066 67.856C109.13 67.536 109.162 67.216 109.162 66.896C109.226 66.576 109.322 66.256 109.45 65.936L109.93 64.112L108.105 63.248C107.786 63.056 107.498 62.864 107.242 62.672C106.986 62.416 106.73 62.192 106.474 62C105.962 61.488 105.514 60.944 105.13 60.368C105.002 60.048 104.873 59.76 104.745 59.504C104.553 59.184 104.393 58.864 104.265 58.544C104.137 58.224 104.073 57.904 104.073 57.584C104.009 57.2 103.945 56.848 103.881 56.528C103.881 56.208 103.881 55.888 103.881 55.568C103.881 55.184 103.913 54.832 103.977 54.512C104.041 53.808 104.233 53.104 104.553 52.4C104.873 51.632 105.258 51.024 105.706 50.576C106.218 50.064 106.826 49.648 107.53 49.328C108.106 49.072 108.81 48.944 109.642 48.944C110.73 48.944 111.562 49.456 112.138 50.48C112.33 50.928 112.49 51.504 112.618 52.208C112.682 52.464 112.714 52.752 112.714 53.072C112.714 53.392 112.714 53.712 112.714 54.032C112.714 54.352 112.714 54.704 112.714 55.088C112.714 55.408 112.682 55.792 112.618 56.24C112.618 56.56 112.586 56.912 112.522 57.296C112.458 57.616 112.394 58 112.33 58.448C112.266 58.768 112.202 59.12 112.138 59.504C112.074 59.824 111.978 60.176 111.85 60.56C111.786 60.88 111.722 61.232 111.658 61.616C111.658 62 111.594 62.384 111.466 62.768C112.298 63.216 113.29 63.44 114.442 63.44C114.826 63.44 115.178 63.44 115.498 63.44C115.818 63.376 116.138 63.312 116.458 63.248C117.354 63.056 118.026 62.832 118.474 62.576C118.794 62.384 119.082 62.192 119.338 62C119.594 61.808 119.85 61.584 120.106 61.328C120.362 61.008 120.586 60.752 120.778 60.56C121.034 60.304 121.226 60.016 121.354 59.696C121.61 59.312 121.77 58.96 121.834 58.64C121.898 58.256 121.962 57.968 122.026 57.776V57.488C122.09 57.36 122.09 57.264 122.026 57.2C122.026 57.136 122.09 57.072 122.218 57.008C122.858 56.944 123.274 56.944 123.466 57.008C123.658 57.008 124.074 57.072 124.714 57.2C125.354 57.264 125.77 57.264 125.962 57.2C126.218 57.136 126.666 57.232 127.306 57.488C127.434 57.552 127.434 57.648 127.306 57.776C127.242 57.904 127.178 58.032 127.114 58.16L126.634 60.272L126.346 62.384L125.962 64.496C125.898 64.816 125.802 65.168 125.674 65.552C125.61 65.872 125.546 66.192 125.482 66.512L125.194 68.624L124.81 70.736L124.618 72.848C124.554 73.232 124.49 73.616 124.426 74C124.362 74.32 124.33 74.64 124.33 74.96L124.042 77.072C123.978 77.456 123.946 77.84 123.946 78.224C124.01 78.544 124.01 78.864 123.946 79.184L123.658 81.392C123.658 81.712 123.626 82.064 123.562 82.448C123.562 82.768 123.562 83.12 123.562 83.504C123.562 83.824 123.53 84.176 123.466 84.56C123.402 84.944 123.37 85.296 123.37 85.616C123.37 85.936 123.402 86.288 123.466 86.672C123.53 87.056 123.562 87.408 123.562 87.728C123.626 88.112 123.658 88.496 123.658 88.88C123.658 89.2 123.658 89.52 123.658 89.84L123.946 91.952C124.074 92.848 124.202 93.552 124.33 94.064C124.65 94.96 124.97 95.6 125.29 95.984C125.802 96.624 126.41 96.944 127.114 96.944C127.818 96.944 128.522 96.752 129.226 96.368C129.482 96.24 129.706 96.048 129.898 95.792C130.154 95.536 130.442 95.248 130.762 94.928L132.01 93.296C132.202 92.976 132.394 92.688 132.586 92.432C132.778 92.112 132.938 91.792 133.066 91.472ZM110.986 50.96C110.666 50.448 110.314 50.16 109.93 50.096C109.866 50.288 109.77 50.544 109.642 50.864C109.514 51.184 109.418 51.568 109.354 52.016C109.226 52.336 109.162 52.688 109.162 53.072C109.226 53.392 109.226 53.712 109.162 54.032C109.162 54.352 109.13 54.704 109.066 55.088C109.066 55.408 109.066 55.728 109.066 56.048C109.066 56.368 109.066 56.72 109.066 57.104C109.066 57.424 109.098 57.744 109.162 58.064C109.226 58.384 109.258 58.704 109.258 59.024C109.322 59.344 109.418 59.664 109.546 59.984C109.738 60.624 110.058 61.232 110.506 61.808L110.89 59.888C110.954 59.568 111.018 59.248 111.082 58.928C111.146 58.608 111.178 58.288 111.178 57.968C111.242 57.584 111.273 57.232 111.273 56.912C111.273 56.592 111.273 56.272 111.273 55.952C111.338 55.632 111.37 55.312 111.37 54.992C111.37 54.672 111.37 54.352 111.37 54.032C111.37 52.56 111.242 51.536 110.986 50.96ZM172.562 96.944C173.138 96.944 173.81 96.784 174.578 96.464C174.898 96.336 175.154 96.144 175.346 95.888C175.538 95.632 175.794 95.376 176.114 95.12C176.306 94.928 176.53 94.736 176.786 94.544C177.042 94.288 177.266 94.032 177.458 93.776C177.714 93.456 177.938 93.2 178.13 93.008C178.386 92.752 178.578 92.464 178.706 92.144C179.026 91.632 179.346 91.024 179.666 90.32L180.626 88.592C180.754 88.272 180.85 87.952 180.914 87.632C181.042 87.312 181.17 86.992 181.298 86.672C181.426 86.352 181.554 86.064 181.682 85.808C181.874 85.488 182.034 85.168 182.162 84.848C182.29 84.528 182.386 84.208 182.45 83.888C182.514 83.568 182.61 83.248 182.738 82.928L183.314 81.008C183.634 80.88 183.826 80.88 183.89 81.008C183.954 81.072 184.114 81.2 184.37 81.392C184.242 81.648 184.146 81.936 184.082 82.256C184.082 82.512 184.018 82.8 183.89 83.12C183.826 83.44 183.698 83.76 183.506 84.08C183.378 84.336 183.25 84.624 183.122 84.944L182.45 86.768C182.322 87.088 182.194 87.408 182.066 87.728C182.002 87.984 181.906 88.272 181.778 88.592C181.65 88.912 181.522 89.2 181.394 89.456C181.266 89.712 181.138 90 181.01 90.32L180.242 92.144L178.994 93.776L177.746 95.312C177.49 95.632 177.234 95.888 176.978 96.08C176.722 96.208 176.466 96.368 176.21 96.56C175.89 96.816 175.602 97.04 175.346 97.232C175.09 97.36 174.802 97.488 174.482 97.616C174.162 97.744 173.842 97.84 173.522 97.904C173.202 97.968 172.882 98 172.562 98C172.242 98 171.89 98 171.506 98C171.186 98.064 170.866 98.032 170.546 97.904C169.97 97.776 169.394 97.456 168.818 96.944C168.498 96.752 168.21 96.56 167.954 96.368C167.762 96.112 167.538 95.856 167.282 95.6C167.09 95.344 166.898 95.056 166.706 94.736C166.578 94.416 166.418 94.096 166.226 93.776C166.098 93.456 165.938 93.168 165.746 92.912C165.554 92.656 165.394 92.368 165.266 92.048C165.138 91.728 165.042 91.408 164.978 91.088C164.978 90.704 164.914 90.32 164.786 89.936L164.402 88.016C164.338 87.696 164.274 87.376 164.21 87.056C164.146 86.672 164.114 86.288 164.114 85.904C164.05 85.584 163.954 85.264 163.826 84.944C163.762 84.624 163.73 84.272 163.73 83.888L163.538 81.872C163.538 81.552 163.538 81.232 163.538 80.912C163.602 80.528 163.634 80.144 163.634 79.76C163.57 79.44 163.538 79.12 163.538 78.8C163.538 78.416 163.538 78.064 163.538 77.744C163.538 77.424 163.538 77.104 163.538 76.784C163.602 76.4 163.634 76.048 163.634 75.728C163.634 75.408 163.666 75.056 163.73 74.672C163.794 74.288 163.826 73.936 163.826 73.616L164.018 71.6C164.018 71.28 164.018 70.96 164.018 70.64C164.018 70.256 164.05 69.872 164.114 69.488C164.114 69.168 164.082 68.848 164.018 68.528C164.018 68.144 164.05 67.792 164.114 67.472L164.498 65.552C164.562 65.232 164.562 64.912 164.498 64.592C164.434 64.272 164.434 63.952 164.498 63.632L164.882 61.712C164.946 61.392 164.946 61.072 164.882 60.752C164.882 60.432 164.914 60.112 164.978 59.792L165.266 57.776C164.818 57.648 164.498 57.648 164.306 57.776C164.178 57.904 163.858 57.968 163.346 57.968C162.898 57.968 162.578 58.032 162.386 58.16C162.194 58.224 161.906 58.128 161.522 57.872C160.946 57.424 160.946 57.04 161.522 56.72C161.97 56.4 162.29 56.304 162.482 56.432C162.61 56.56 162.93 56.624 163.442 56.624C163.954 56.624 164.274 56.656 164.402 56.72C164.594 56.784 164.914 56.72 165.362 56.528L165.65 54.608C165.714 54.224 165.778 53.872 165.842 53.552C165.97 53.168 166.066 52.816 166.13 52.496C166.194 52.176 166.194 51.824 166.13 51.44C166.13 51.056 166.162 50.704 166.226 50.384C166.354 50 166.45 49.648 166.514 49.328C166.578 48.944 166.642 48.592 166.706 48.272C166.77 47.952 166.834 47.632 166.898 47.312C167.026 46.928 167.122 46.576 167.186 46.256C167.314 45.872 167.378 45.52 167.378 45.2C167.378 44.816 167.442 44.464 167.57 44.144C167.634 43.824 167.634 43.472 167.57 43.088C167.57 42.704 167.602 42.352 167.666 42.032C167.794 41.648 167.89 41.296 167.954 40.976C168.018 40.592 168.082 40.24 168.146 39.92C168.21 39.6 168.274 39.28 168.338 38.96C168.466 38.576 168.562 38.224 168.626 37.904L168.914 35.792C169.042 35.408 169.106 35.056 169.106 34.736C169.106 34.352 169.138 34 169.202 33.68C169.33 33.296 169.458 32.944 169.586 32.624C169.714 32.24 169.81 31.856 169.874 31.472L170.162 29.264C170.29 28.88 170.354 28.496 170.354 28.112C170.354 27.728 170.386 27.376 170.45 27.056C170.514 26.928 170.514 26.832 170.45 26.768C170.45 26.64 170.514 26.576 170.642 26.576C171.282 26.448 171.698 26.448 171.89 26.576C172.082 26.64 172.498 26.704 173.138 26.768C173.842 26.896 174.29 26.928 174.482 26.864C174.738 26.736 175.122 26.832 175.634 27.152C175.89 27.28 175.954 27.408 175.826 27.536C175.698 27.664 175.602 27.888 175.538 28.208C175.474 28.528 175.378 28.848 175.25 29.168C175.122 29.488 175.026 29.808 174.962 30.128C174.834 30.448 174.77 30.8 174.77 31.184C174.834 31.568 174.834 31.92 174.77 32.24L174.386 34.256C174.258 34.576 174.162 34.928 174.098 35.312C174.098 35.632 174.066 35.952 174.002 36.272C173.874 36.592 173.778 36.944 173.714 37.328C173.65 37.648 173.586 37.968 173.522 38.288C173.458 38.672 173.394 39.024 173.33 39.344C173.266 39.664 173.202 39.984 173.138 40.304C173.01 40.688 172.914 41.072 172.85 41.456C172.85 41.776 172.818 42.096 172.754 42.416C172.69 42.736 172.626 43.088 172.562 43.472C172.498 43.792 172.402 44.112 172.274 44.432L172.082 46.448C171.954 46.768 171.858 47.12 171.794 47.504C171.794 47.824 171.762 48.144 171.698 48.464L171.314 50.576L170.93 52.592L170.738 54.608L170.354 56.72C170.93 56.912 171.314 56.976 171.506 56.912C171.698 56.784 172.114 56.72 172.754 56.72C173.33 56.72 173.714 56.656 173.906 56.528C174.162 56.4 174.546 56.496 175.058 56.816C175.57 57.136 175.57 57.456 175.058 57.776C174.482 58.096 174.066 58.224 173.81 58.16C173.618 58.096 173.234 58.064 172.658 58.064C172.018 58.064 171.602 58.032 171.41 57.968C171.218 57.84 170.802 57.84 170.162 57.968C170.162 58.288 170.13 58.576 170.066 58.832C170.002 59.088 169.938 59.376 169.874 59.696C169.81 60.016 169.746 60.336 169.682 60.656C169.682 60.912 169.682 61.168 169.682 61.424L169.49 63.536L169.202 65.552C169.202 65.872 169.17 66.224 169.106 66.608C169.042 66.928 168.978 67.248 168.914 67.568C168.85 67.888 168.818 68.24 168.818 68.624C168.882 68.944 168.882 69.264 168.818 69.584C168.818 69.904 168.786 70.256 168.722 70.64C168.658 70.96 168.594 71.28 168.53 71.6C168.53 71.984 168.466 72.336 168.338 72.656C168.274 72.976 168.242 73.296 168.242 73.616C168.178 74 168.178 74.384 168.242 74.768C168.37 75.088 168.402 75.408 168.338 75.728C168.338 76.048 168.306 76.4 168.242 76.784C168.242 77.104 168.242 77.424 168.242 77.744C168.178 78.064 168.114 78.416 168.05 78.8C168.05 79.12 168.05 79.44 168.05 79.76V83.888C168.05 84.208 168.05 84.56 168.05 84.944C168.114 85.264 168.146 85.584 168.146 85.904V87.92L168.434 90.032C168.498 90.352 168.53 90.704 168.53 91.088C168.53 91.408 168.594 91.728 168.722 92.048C168.85 92.432 168.978 92.784 169.106 93.104C169.234 93.36 169.362 93.616 169.49 93.872C169.618 94.256 169.746 94.608 169.874 94.928C170.002 95.248 170.162 95.536 170.354 95.792C170.93 96.56 171.666 96.944 172.562 96.944ZM210.972 91.472C211.164 91.152 211.324 90.832 211.452 90.512C211.644 90.128 211.804 89.776 211.932 89.456L212.796 87.344C212.924 87.024 213.052 86.704 213.18 86.384C213.308 86 213.436 85.616 213.564 85.232L214.044 83.12C214.172 82.736 214.3 82.384 214.428 82.064C214.556 81.68 214.684 81.328 214.812 81.008C215.132 80.944 215.356 80.912 215.484 80.912C215.612 80.912 215.772 81.008 215.964 81.2L215.484 83.12L215.004 84.944L214.332 86.768C214.204 87.088 214.076 87.408 213.948 87.728C213.884 87.984 213.788 88.272 213.66 88.592L212.988 90.32L212.124 92.048C211.932 92.368 211.772 92.656 211.644 92.912C211.516 93.168 211.356 93.456 211.164 93.776L210.012 95.312C209.82 95.632 209.596 95.888 209.34 96.08C209.084 96.272 208.86 96.464 208.668 96.656C208.348 96.912 208.06 97.136 207.804 97.328C207.548 97.456 207.26 97.584 206.94 97.712C206.62 97.84 206.3 97.936 205.98 98C205.66 98.064 205.34 98.096 205.02 98.096C204.7 98.096 204.38 98.064 204.06 98C203.804 97.936 203.516 97.872 203.196 97.808C202.428 97.616 201.82 97.36 201.372 97.04C201.116 96.848 200.892 96.656 200.7 96.464C200.508 96.208 200.284 95.952 200.028 95.696C199.58 95.12 199.228 94.544 198.972 93.968C198.78 93.648 198.588 93.36 198.396 93.104C198.268 92.784 198.14 92.464 198.012 92.144C197.756 91.44 197.596 90.768 197.532 90.128L197.244 88.112C197.244 87.792 197.212 87.472 197.148 87.152C197.148 86.768 197.148 86.416 197.148 86.096C197.084 85.776 197.02 85.456 196.956 85.136C196.956 84.752 196.956 84.368 196.956 83.984V81.968C196.956 81.648 196.956 81.328 196.956 81.008C197.02 80.624 197.084 80.272 197.148 79.952C197.148 79.568 197.116 79.216 197.052 78.896C197.052 78.512 197.084 78.16 197.148 77.84C197.148 77.52 197.18 77.2 197.244 76.88C197.308 76.496 197.34 76.144 197.34 75.824L197.724 73.808C197.724 73.488 197.692 73.136 197.628 72.752C197.628 72.368 197.66 72.016 197.724 71.696L198.012 69.68L198.396 67.664L198.684 65.648L198.972 63.536L199.356 61.616C199.164 61.872 198.94 62.096 198.684 62.288C198.492 62.48 198.236 62.704 197.916 62.96C197.532 63.28 196.956 63.6 196.188 63.92C195.932 64.048 195.644 64.144 195.324 64.208C195.004 64.272 194.684 64.368 194.364 64.496C194.044 64.56 193.724 64.624 193.404 64.688C193.084 64.752 192.732 64.784 192.348 64.784C191.9 64.784 191.356 64.72 190.716 64.592L189.084 64.304L188.988 64.4H189.084C189.02 64.72 188.924 65.04 188.796 65.36C188.732 65.68 188.668 66 188.604 66.32L188.124 68.144L187.644 70.064C187.58 70.384 187.484 70.704 187.356 71.024C187.228 71.28 187.1 71.568 186.972 71.888C186.908 72.208 186.876 72.528 186.876 72.848C186.876 73.168 186.812 73.488 186.684 73.808L186.108 75.632C185.98 75.952 185.852 76.272 185.724 76.592C185.66 76.848 185.564 77.136 185.436 77.456C185.308 77.84 185.212 78.224 185.148 78.608C185.148 78.992 185.084 79.376 184.956 79.76C184.828 80.144 184.7 80.528 184.572 80.912C184.444 81.232 184.316 81.552 184.188 81.872C183.868 82 183.644 82.064 183.516 82.064C183.452 82 183.324 81.84 183.132 81.584L183.708 79.376C183.836 79.056 183.932 78.704 183.996 78.32C184.124 77.936 184.252 77.552 184.38 77.168L184.86 75.248C184.988 74.928 185.084 74.64 185.148 74.384C185.276 74.064 185.404 73.744 185.532 73.424L185.916 71.6C186.044 71.28 186.14 70.96 186.204 70.64C186.332 70.32 186.428 70 186.492 69.68L186.972 67.856C187.036 67.536 187.068 67.216 187.068 66.896C187.132 66.576 187.228 66.256 187.356 65.936L187.836 64.112L186.012 63.248C185.692 63.056 185.404 62.864 185.148 62.672C184.892 62.416 184.636 62.192 184.38 62C183.868 61.488 183.42 60.944 183.036 60.368C182.908 60.048 182.78 59.76 182.652 59.504C182.46 59.184 182.3 58.864 182.172 58.544C182.044 58.224 181.98 57.904 181.98 57.584C181.916 57.2 181.852 56.848 181.788 56.528C181.788 56.208 181.788 55.888 181.788 55.568C181.788 55.184 181.82 54.832 181.884 54.512C181.948 53.808 182.14 53.104 182.46 52.4C182.78 51.632 183.164 51.024 183.612 50.576C184.124 50.064 184.732 49.648 185.436 49.328C186.012 49.072 186.716 48.944 187.548 48.944C188.636 48.944 189.468 49.456 190.044 50.48C190.236 50.928 190.396 51.504 190.524 52.208C190.588 52.464 190.62 52.752 190.62 53.072C190.62 53.392 190.62 53.712 190.62 54.032C190.62 54.352 190.62 54.704 190.62 55.088C190.62 55.408 190.588 55.792 190.524 56.24C190.524 56.56 190.492 56.912 190.428 57.296C190.364 57.616 190.3 58 190.236 58.448C190.172 58.768 190.108 59.12 190.044 59.504C189.98 59.824 189.884 60.176 189.756 60.56C189.692 60.88 189.628 61.232 189.564 61.616C189.564 62 189.5 62.384 189.372 62.768C190.204 63.216 191.196 63.44 192.348 63.44C192.732 63.44 193.084 63.44 193.404 63.44C193.724 63.376 194.044 63.312 194.364 63.248C195.26 63.056 195.932 62.832 196.38 62.576C196.7 62.384 196.988 62.192 197.244 62C197.5 61.808 197.756 61.584 198.012 61.328C198.268 61.008 198.492 60.752 198.684 60.56C198.94 60.304 199.132 60.016 199.26 59.696C199.516 59.312 199.676 58.96 199.74 58.64C199.804 58.256 199.868 57.968 199.932 57.776V57.488C199.996 57.36 199.996 57.264 199.932 57.2C199.932 57.136 199.996 57.072 200.124 57.008C200.764 56.944 201.18 56.944 201.372 57.008C201.564 57.008 201.98 57.072 202.62 57.2C203.26 57.264 203.676 57.264 203.868 57.2C204.124 57.136 204.572 57.232 205.212 57.488C205.34 57.552 205.34 57.648 205.212 57.776C205.148 57.904 205.084 58.032 205.02 58.16L204.54 60.272L204.252 62.384L203.868 64.496C203.804 64.816 203.708 65.168 203.58 65.552C203.516 65.872 203.452 66.192 203.388 66.512L203.1 68.624L202.716 70.736L202.524 72.848C202.46 73.232 202.396 73.616 202.332 74C202.268 74.32 202.236 74.64 202.236 74.96L201.948 77.072C201.884 77.456 201.852 77.84 201.852 78.224C201.916 78.544 201.916 78.864 201.852 79.184L201.564 81.392C201.564 81.712 201.532 82.064 201.468 82.448C201.468 82.768 201.468 83.12 201.468 83.504C201.468 83.824 201.436 84.176 201.372 84.56C201.308 84.944 201.276 85.296 201.276 85.616C201.276 85.936 201.308 86.288 201.372 86.672C201.436 87.056 201.468 87.408 201.468 87.728C201.532 88.112 201.564 88.496 201.564 88.88C201.564 89.2 201.564 89.52 201.564 89.84L201.852 91.952C201.98 92.848 202.108 93.552 202.236 94.064C202.556 94.96 202.876 95.6 203.196 95.984C203.708 96.624 204.316 96.944 205.02 96.944C205.724 96.944 206.428 96.752 207.132 96.368C207.388 96.24 207.612 96.048 207.804 95.792C208.06 95.536 208.348 95.248 208.668 94.928L209.916 93.296C210.108 92.976 210.3 92.688 210.492 92.432C210.684 92.112 210.844 91.792 210.972 91.472ZM188.892 50.96C188.572 50.448 188.22 50.16 187.836 50.096C187.772 50.288 187.676 50.544 187.548 50.864C187.42 51.184 187.324 51.568 187.26 52.016C187.132 52.336 187.068 52.688 187.068 53.072C187.132 53.392 187.132 53.712 187.068 54.032C187.068 54.352 187.036 54.704 186.972 55.088C186.972 55.408 186.972 55.728 186.972 56.048C186.972 56.368 186.972 56.72 186.972 57.104C186.972 57.424 187.004 57.744 187.068 58.064C187.132 58.384 187.164 58.704 187.164 59.024C187.228 59.344 187.324 59.664 187.452 59.984C187.644 60.624 187.964 61.232 188.412 61.808L188.796 59.888C188.86 59.568 188.924 59.248 188.988 58.928C189.052 58.608 189.084 58.288 189.084 57.968C189.148 57.584 189.18 57.232 189.18 56.912C189.18 56.592 189.18 56.272 189.18 55.952C189.244 55.632 189.276 55.312 189.276 54.992C189.276 54.672 189.276 54.352 189.276 54.032C189.276 52.56 189.148 51.536 188.892 50.96ZM239.208 89.456L239.976 87.344C240.104 87.024 240.232 86.704 240.36 86.384C240.488 86 240.616 85.616 240.744 85.232C240.872 84.912 240.968 84.56 241.032 84.176C241.16 83.792 241.288 83.44 241.416 83.12L241.992 80.912C242.312 80.848 242.536 80.848 242.664 80.912C242.792 80.912 242.984 81.008 243.24 81.2L242.664 83.12L242.088 84.944C241.96 85.264 241.832 85.584 241.704 85.904C241.64 86.16 241.544 86.448 241.416 86.768L240.84 88.496C240.712 88.816 240.584 89.136 240.456 89.456C240.392 89.712 240.296 90 240.168 90.32C240.04 90.64 239.912 90.928 239.784 91.184C239.656 91.44 239.528 91.728 239.4 92.048C239.208 92.368 239.016 92.656 238.824 92.912C238.696 93.168 238.536 93.424 238.344 93.68C237.896 94.384 237.544 94.928 237.288 95.312C237.032 95.632 236.776 95.888 236.52 96.08C236.264 96.272 236.04 96.464 235.848 96.656C235.528 96.848 235.24 97.04 234.984 97.232C234.792 97.424 234.536 97.584 234.216 97.712C233.896 97.84 233.576 97.936 233.256 98C232.936 98.064 232.616 98.096 232.296 98.096C231.656 98.096 231.048 98 230.472 97.808C230.152 97.744 229.864 97.68 229.608 97.616C229.352 97.552 229.064 97.456 228.744 97.328C228.232 97.136 227.72 96.848 227.208 96.464C226.952 96.272 226.696 96.08 226.44 95.888C226.248 95.696 226.056 95.472 225.864 95.216C225.416 94.704 225 94.096 224.616 93.392L223.752 91.472C223.624 90.96 223.496 90.256 223.368 89.36C223.24 89.04 223.176 88.72 223.176 88.4C223.176 88.016 223.144 87.632 223.08 87.248C223.08 86.928 223.048 86.576 222.984 86.192C222.92 85.808 222.888 85.456 222.888 85.136C222.888 84.752 222.92 84.4 222.984 84.08C223.048 83.696 223.08 83.312 223.08 82.928L223.272 80.816C223.272 80.112 223.368 79.408 223.56 78.704C223.624 78.384 223.688 78.064 223.752 77.744C223.816 77.36 223.912 76.976 224.04 76.592C224.168 76.272 224.232 75.952 224.232 75.632C224.232 75.248 224.296 74.896 224.424 74.576C224.488 74.192 224.552 73.84 224.616 73.52C224.68 73.136 224.776 72.784 224.904 72.464L225.576 70.448L226.056 68.336C226.184 67.952 226.28 67.6 226.344 67.28C226.472 66.896 226.568 66.512 226.632 66.128L227.112 64.016C227.24 63.632 227.304 63.248 227.304 62.864C227.304 62.48 227.336 62.128 227.4 61.808C227.464 61.424 227.528 61.04 227.592 60.656C227.72 60.272 227.752 59.92 227.688 59.6C227.688 58.704 227.496 58 227.112 57.488C226.856 57.168 226.408 57.008 225.768 57.008C225.448 57.008 225.128 57.04 224.808 57.104C224.552 57.168 224.264 57.328 223.944 57.584C223.688 57.776 223.464 58 223.272 58.256C223.08 58.512 222.888 58.8 222.696 59.12C222.568 59.376 222.408 59.664 222.216 59.984C222.024 60.24 221.864 60.528 221.736 60.848C221.608 61.104 221.448 61.392 221.256 61.712C221.064 61.968 220.904 62.256 220.776 62.576C220.648 62.896 220.52 63.248 220.392 63.632C220.328 63.952 220.232 64.304 220.104 64.688C219.976 65.008 219.848 65.36 219.72 65.744C219.656 66.064 219.56 66.384 219.432 66.704L218.856 68.816C218.728 69.2 218.632 69.584 218.568 69.968C218.568 70.288 218.536 70.64 218.472 71.024C218.344 71.344 218.216 71.696 218.088 72.08C218.024 72.4 217.96 72.752 217.896 73.136L217.32 75.248L216.84 77.456L216.36 79.76L215.784 81.968C215.464 82.096 215.24 82.128 215.112 82.064C214.984 81.936 214.824 81.776 214.632 81.584L215.208 79.376C215.464 78.544 215.624 77.808 215.688 77.168C215.944 76.336 216.104 75.6 216.168 74.96L216.648 72.944C216.712 72.624 216.776 72.304 216.84 71.984C216.904 71.6 217 71.248 217.128 70.928C217.192 70.608 217.256 70.288 217.32 69.968C217.448 69.648 217.576 69.328 217.704 69.008L218.184 66.992C218.312 66.672 218.408 66.352 218.472 66.032C218.536 65.648 218.632 65.296 218.76 64.976L219.336 63.056L220.2 61.136C220.328 60.816 220.456 60.496 220.584 60.176C220.712 59.856 220.872 59.568 221.064 59.312C221.256 58.992 221.448 58.704 221.64 58.448C221.896 58.192 222.12 57.936 222.312 57.68C222.888 57.04 223.4 56.592 223.848 56.336C224.168 56.208 224.488 56.08 224.808 55.952C225.128 55.824 225.448 55.76 225.768 55.76V55.856C226.472 55.856 227.112 55.952 227.688 56.144C228.2 56.4 228.712 56.784 229.224 57.296C229.416 57.616 229.608 57.936 229.8 58.256C230.056 58.512 230.248 58.8 230.376 59.12C230.504 59.44 230.568 59.792 230.568 60.176C230.568 60.496 230.6 60.848 230.664 61.232C230.728 61.552 230.76 61.904 230.76 62.288C230.824 62.608 230.856 62.96 230.856 63.344C230.856 63.664 230.824 64.016 230.76 64.4C230.76 64.784 230.76 65.136 230.76 65.456C230.696 65.84 230.664 66.224 230.664 66.608C230.664 66.928 230.664 67.28 230.664 67.664L230.376 69.776L229.992 71.888L229.608 73.904C229.48 74.8 229.352 75.504 229.224 76.016L228.744 78.896L228.36 81.008L228.072 83.12C228.008 83.504 227.944 83.888 227.88 84.272C227.88 84.592 227.88 84.912 227.88 85.232C227.816 85.616 227.784 86 227.784 86.384C227.848 86.768 227.88 87.12 227.88 87.44C227.816 87.824 227.752 88.208 227.688 88.592C227.688 88.912 227.72 89.232 227.784 89.552C227.784 89.936 227.816 90.32 227.88 90.704C227.944 91.024 228.008 91.344 228.072 91.664C228.2 92.56 228.328 93.264 228.456 93.776C228.584 94.16 228.744 94.512 228.936 94.832C229.128 95.088 229.32 95.344 229.512 95.6C230.024 96.112 230.44 96.432 230.76 96.56C231.208 96.752 231.72 96.848 232.296 96.848C232.936 96.848 233.608 96.656 234.312 96.272C234.568 96.144 234.824 95.984 235.08 95.792C235.4 95.6 235.688 95.344 235.944 95.024C236.328 94.64 236.744 94.064 237.192 93.296C237.512 92.784 237.832 92.176 238.152 91.472L239.208 89.456ZM229.032 46.64C228.136 46.64 227.464 46.352 227.016 45.776C226.44 45.2 226.152 44.528 226.152 43.76C226.152 43.248 226.312 42.672 226.632 42.032C226.952 41.456 227.336 41.04 227.784 40.784C228.232 40.464 228.744 40.24 229.32 40.112H229.8C230.632 40.112 231.304 40.4 231.816 40.976C232.392 41.552 232.68 42.224 232.68 42.992C232.68 43.504 232.52 44.08 232.2 44.72C231.88 45.296 231.496 45.712 231.048 45.968C230.6 46.288 230.088 46.512 229.512 46.64H229.032ZM257.177 55.76C257.561 55.76 257.913 55.76 258.233 55.76C258.617 55.696 259.001 55.728 259.385 55.856C259.705 55.984 260.025 56.112 260.345 56.24C260.729 56.368 261.081 56.496 261.401 56.624C262.105 57.008 262.713 57.392 263.225 57.776C263.481 57.968 263.737 58.192 263.993 58.448C264.249 58.64 264.537 58.896 264.857 59.216C265.049 59.472 265.209 59.728 265.337 59.984C265.529 60.24 265.721 60.528 265.913 60.848C266.105 61.104 266.265 61.392 266.393 61.712C266.521 61.968 266.649 62.256 266.777 62.576C266.905 62.896 267.033 63.184 267.161 63.44C267.353 63.696 267.513 63.984 267.641 64.304C267.769 64.624 267.865 64.944 267.929 65.264C267.993 65.584 268.089 65.904 268.217 66.224C268.345 66.544 268.377 66.864 268.313 67.184C268.313 67.504 268.345 67.824 268.409 68.144C268.473 68.464 268.537 68.784 268.601 69.104C268.729 69.424 268.793 69.744 268.793 70.064C268.857 70.384 268.889 70.736 268.889 71.12C268.953 71.44 268.985 71.76 268.985 72.08C268.985 72.4 268.953 72.72 268.889 73.04C268.889 73.36 268.889 73.68 268.889 74L268.313 78.032C268.185 78.352 268.089 78.704 268.025 79.088C268.025 79.408 267.993 79.728 267.929 80.048L267.353 81.968L266.777 83.984L265.913 85.808C265.785 86.128 265.625 86.448 265.433 86.768C265.241 87.024 265.081 87.312 264.953 87.632C264.761 87.952 264.569 88.272 264.377 88.592C264.249 88.848 264.121 89.136 263.993 89.456L262.745 91.088L261.401 92.624L259.961 94.064L258.329 95.312L256.601 96.464C256.281 96.592 255.961 96.72 255.641 96.848C255.321 96.912 255.001 97.008 254.681 97.136C254.361 97.264 254.009 97.392 253.625 97.52C253.305 97.584 252.985 97.648 252.665 97.712C252.345 97.84 251.993 97.904 251.609 97.904C251.289 97.904 250.969 97.904 250.649 97.904C250.265 97.904 249.881 97.904 249.497 97.904C249.113 97.904 248.761 97.84 248.441 97.712C248.121 97.584 247.833 97.392 247.577 97.136C247.385 96.88 247.129 96.624 246.809 96.368C246.553 96.112 246.297 95.856 246.041 95.6C245.849 95.344 245.657 95.056 245.465 94.736C245.337 94.416 245.177 94.096 244.985 93.776C244.857 93.392 244.729 93.008 244.601 92.624C244.537 92.944 244.505 93.328 244.505 93.776C244.569 94.16 244.601 94.512 244.601 94.832C244.537 95.216 244.473 95.6 244.409 95.984C244.409 96.304 244.409 96.656 244.409 97.04C244.345 97.36 244.313 97.68 244.313 98C244.377 98.384 244.377 98.768 244.313 99.152C244.313 99.472 244.281 99.824 244.217 100.208C244.217 100.592 244.185 100.944 244.121 101.264C244.121 101.584 244.089 101.936 244.025 102.32C243.961 102.704 243.897 103.056 243.833 103.376C243.833 103.696 243.833 104.048 243.833 104.432C243.833 104.816 243.801 105.168 243.737 105.488V107.6C243.673 107.984 243.609 108.336 243.545 108.656C243.545 109.04 243.545 109.392 243.545 109.712C243.481 110.096 243.449 110.448 243.449 110.768C243.513 111.152 243.545 111.504 243.545 111.824C243.481 112.208 243.417 112.56 243.353 112.88C243.353 113.264 243.353 113.648 243.353 114.032L243.065 116.144C243.065 116.464 243.001 116.784 242.873 117.104C242.809 117.488 242.777 117.872 242.777 118.256C242.713 118.576 242.649 118.896 242.585 119.216C242.585 119.6 242.585 119.984 242.585 120.368C242.521 120.688 242.457 121.04 242.393 121.424C242.393 121.808 242.393 122.16 242.393 122.48L242.201 124.592C242.137 124.976 242.041 125.328 241.913 125.648C241.785 125.968 241.689 126.288 241.625 126.608C241.625 126.736 241.657 126.832 241.721 126.896C241.785 127.024 241.753 127.12 241.625 127.184C241.113 127.248 240.761 127.248 240.569 127.184C240.377 127.12 239.993 127.024 239.417 126.896C238.905 126.832 238.553 126.832 238.361 126.896C238.105 126.96 237.721 126.864 237.209 126.608C237.081 126.544 237.049 126.448 237.113 126.32C237.177 126.256 237.241 126.128 237.305 125.936C237.369 125.744 237.401 125.456 237.401 125.072C237.401 124.752 237.465 124.368 237.593 123.92C237.593 123.6 237.657 123.248 237.785 122.864C237.913 122.544 238.009 122.192 238.073 121.808C238.073 121.488 238.073 121.136 238.073 120.752C238.073 120.432 238.105 120.08 238.169 119.696C238.169 119.376 238.201 119.024 238.265 118.64C238.265 118.32 238.265 117.968 238.265 117.584L238.553 115.568L238.841 113.456C238.841 113.136 238.873 112.784 238.937 112.4C239.001 112.08 239.065 111.728 239.129 111.344C239.193 111.024 239.193 110.672 239.129 110.288C239.065 109.968 239.065 109.616 239.129 109.232L239.321 107.12L239.609 105.104C239.609 104.784 239.641 104.432 239.705 104.048C239.769 103.664 239.801 103.312 239.801 102.992C239.865 102.672 239.897 102.32 239.897 101.936C239.833 101.552 239.801 101.2 239.801 100.88L240.089 98.768L240.281 96.656L240.473 94.64C240.473 94.256 240.505 93.904 240.569 93.584C240.633 93.264 240.697 92.944 240.761 92.624C240.825 92.304 240.889 91.984 240.953 91.664C240.953 91.28 240.953 90.928 240.953 90.608L241.145 88.496L241.529 84.464C241.593 84.144 241.625 83.824 241.625 83.504C241.561 83.12 241.561 82.768 241.625 82.448L241.913 80.432V78.416C241.977 78.096 242.009 77.776 242.009 77.456C242.073 77.072 242.105 76.72 242.105 76.4C242.169 76.08 242.169 75.76 242.105 75.44C242.105 75.056 242.137 74.704 242.201 74.384L242.585 72.368L242.969 68.336C242.969 68.016 242.969 67.696 242.969 67.376C242.969 66.992 243.001 66.64 243.065 66.32C243.129 66 243.193 65.68 243.257 65.36C243.321 64.976 243.353 64.624 243.353 64.304L243.545 62.288L243.833 60.272L244.025 58.256C244.089 57.872 244.121 57.52 244.121 57.2C244.185 56.816 244.217 56.464 244.217 56.144C244.665 56.016 245.081 56.048 245.465 56.24C245.529 56.56 245.561 56.912 245.561 57.296C245.625 57.616 245.657 58 245.657 58.448C245.657 58.768 245.625 59.088 245.561 59.408C245.497 59.728 245.465 60.08 245.465 60.464V62.576C245.465 62.896 245.497 63.248 245.561 63.632C245.625 64.016 245.657 64.368 245.657 64.688C245.657 65.072 245.657 65.456 245.657 65.84C245.657 66.16 245.625 66.48 245.561 66.8C245.561 67.184 245.529 67.568 245.465 67.952C245.401 68.272 245.337 68.592 245.273 68.912C245.273 69.296 245.273 69.68 245.273 70.064C245.337 70.384 245.369 70.704 245.369 71.024V73.136C245.369 73.52 245.337 73.872 245.273 74.192C245.273 74.512 245.273 74.864 245.273 75.248L245.849 73.328C245.977 73.008 246.041 72.688 246.041 72.368C246.041 71.984 246.105 71.632 246.233 71.312L246.905 69.392C247.033 69.072 247.129 68.784 247.193 68.528C247.321 68.208 247.449 67.888 247.577 67.568C247.705 67.248 247.769 66.928 247.769 66.608C247.833 66.224 247.929 65.872 248.057 65.552C248.185 65.232 248.345 64.944 248.537 64.688C248.729 64.368 248.889 64.048 249.017 63.728C249.209 63.152 249.465 62.512 249.785 61.808C249.913 61.488 250.073 61.2 250.265 60.944C250.521 60.688 250.713 60.432 250.841 60.176L251.897 58.352C252.153 58.096 252.409 57.872 252.665 57.68C252.921 57.488 253.209 57.296 253.529 57.104C254.105 56.592 254.681 56.272 255.257 56.144C255.577 56.016 255.897 55.92 256.217 55.856C256.537 55.792 256.857 55.76 257.177 55.76ZM245.465 91.664C245.593 91.984 245.689 92.304 245.753 92.624C245.881 92.88 246.009 93.168 246.137 93.488C246.393 94.064 246.745 94.64 247.193 95.216C247.385 95.472 247.609 95.696 247.865 95.888C248.185 96.016 248.505 96.144 248.825 96.272C249.337 96.528 249.945 96.656 250.649 96.656C251.417 96.656 252.089 96.528 252.665 96.272C253.113 96.144 253.721 95.792 254.489 95.216C254.745 95.024 255.001 94.832 255.257 94.64C255.513 94.448 255.769 94.192 256.025 93.872C256.281 93.616 256.505 93.392 256.697 93.2C256.953 92.944 257.177 92.656 257.369 92.336C257.625 92.016 257.817 91.728 257.945 91.472C258.137 91.152 258.329 90.832 258.521 90.512C258.969 89.872 259.321 89.232 259.577 88.592L260.537 86.576C260.665 86.256 260.761 85.904 260.825 85.52C260.953 85.136 261.081 84.784 261.209 84.464C261.337 84.144 261.433 83.824 261.497 83.504C261.625 83.12 261.753 82.736 261.881 82.352C262.009 82.032 262.073 81.68 262.073 81.296C262.137 80.912 262.201 80.528 262.265 80.144C262.521 79.312 262.681 78.608 262.745 78.032L262.937 75.824L263.321 73.808C263.321 73.488 263.321 73.168 263.321 72.848C263.321 72.464 263.353 72.112 263.417 71.792C263.417 71.472 263.385 71.152 263.321 70.832C263.321 70.512 263.321 70.192 263.321 69.872C263.321 69.552 263.289 69.232 263.225 68.912C263.225 68.528 263.193 68.176 263.129 67.856C263.129 67.536 263.129 67.216 263.129 66.896C263.129 66.512 263.097 66.16 263.033 65.84L262.649 63.824L262.169 61.904C262.041 61.584 261.881 61.296 261.689 61.04C261.561 60.72 261.433 60.4 261.305 60.08C260.985 59.44 260.601 58.896 260.153 58.448C259.705 57.872 259.289 57.52 258.905 57.392C258.585 57.264 258.297 57.2 258.041 57.2C257.785 57.136 257.497 57.104 257.177 57.104V56.912C256.345 56.912 255.641 57.04 255.065 57.296C254.745 57.424 254.489 57.616 254.297 57.872C254.105 58.128 253.849 58.416 253.529 58.736C253.273 58.928 253.049 59.184 252.857 59.504C252.665 59.76 252.441 60.048 252.185 60.368C251.993 60.624 251.769 60.88 251.513 61.136C251.321 61.392 251.129 61.68 250.937 62C250.809 62.32 250.681 62.672 250.553 63.056C250.425 63.376 250.297 63.696 250.169 64.016C250.041 64.336 249.913 64.688 249.785 65.072C249.657 65.392 249.529 65.712 249.401 66.032L248.633 68.144C248.505 68.464 248.377 68.816 248.249 69.2C248.121 69.52 247.993 69.84 247.865 70.16C247.737 70.544 247.641 70.928 247.577 71.312C247.577 71.632 247.513 71.984 247.385 72.368C247.257 72.688 247.129 73.04 247.001 73.424C246.937 73.744 246.841 74.096 246.713 74.48L246.137 76.592C246.009 76.912 245.945 77.264 245.945 77.648C245.945 78.032 245.881 78.384 245.753 78.704C245.625 79.088 245.497 79.472 245.369 79.856C245.305 80.176 245.209 80.496 245.081 80.816C245.017 81.136 244.985 81.456 244.985 81.776C245.049 82.096 245.081 82.416 245.081 82.736C245.017 83.056 244.953 83.376 244.889 83.696C244.825 83.952 244.793 84.24 244.793 84.56C244.793 84.88 244.825 85.2 244.889 85.52C244.953 85.84 244.953 86.16 244.889 86.48C244.889 86.8 244.857 87.12 244.793 87.44C244.729 87.696 244.665 87.984 244.601 88.304L244.985 90.032C245.049 90.352 245.113 90.64 245.177 90.896C245.305 91.088 245.401 91.344 245.465 91.664Z" fill="#E2AB3F"/>
</svg>
